<?xml version="1.0" encoding="utf-8"?>
<!-- Generator: Adobe Illustrator 19.2.1, SVG Export Plug-In . SVG Version: 6.00 Build 0)  -->
<svg version="1.1" id="layer" xmlns="http://www.w3.org/2000/svg" xmlns:xlink="http://www.w3.org/1999/xlink" x="0px" y="0px"
	 viewBox="0 0 652 652" style="enable-background:new 0 0 652 652;" xml:space="preserve">
<style type="text/css">
	.st0{fill:#18191A;}
	.st1{fill:#4DC5F2;}
</style>
<g id="Layer_2">
	<g id="Layer_1-2">
		<path class="st0" d="M621.9,303.5c0.1-36.6-29.6-66.3-66.1-66.3s-66.3,29.6-66.3,66.1s29.6,66.3,66.1,66.3
			c15.5,0,30.6-5.4,42.5-15.4v15.4h23.8v-61.3l-0.2-0.2C621.9,306.6,621.9,305.1,621.9,303.5z M555.8,345.8
			c-23.4,0-42.3-18.9-42.3-42.3s18.9-42.3,42.3-42.3c23.4,0,42.3,18.9,42.3,42.3c0,0,0,0,0,0C598,326.9,579.1,345.8,555.8,345.8z"/>
		<path class="st0" d="M460.6,337.6V193.3h-23.8V345c0,23.2,15,24.7,23.7,24.7h16.6v-23.8h-8.2C464.3,345.8,460.6,342.1,460.6,337.6
			z"/>
		<path class="st0" d="M153.3,315.4c0.7-4,1.1-8,1.1-12c0-36.6-29.7-66.2-66.3-66.2S22,266.9,22,303.5c0,36.6,29.7,66.2,66.3,66.2
			c22.5,0,43.5-11.5,55.7-30.4h-33c-6.7,4.3-14.6,6.6-22.6,6.6c-18.8,0-35.3-12.4-40.6-30.4H153.3z M88.3,261.2
			c18.8,0,35.3,12.4,40.6,30.4H47.7C53,273.6,69.5,261.2,88.3,261.2z"/>
		<path class="st0" d="M415.5,315.4c0.7-4,1.1-8,1.1-12c0.1-36.6-29.5-66.3-66.1-66.4c-36.6-0.1-66.3,29.5-66.4,66.1
			c-0.1,36.6,29.5,66.3,66.1,66.4c22.5,0,43.5-11.4,55.8-30.3H373c-19.7,12.5-45.8,6.7-58.3-13c-2.1-3.4-3.8-7-4.9-10.9L415.5,315.4
			z M350.5,261.2c18.8,0,35.3,12.4,40.6,30.4h-81.2C315.2,273.6,331.7,261.2,350.5,261.2z"/>
		<path class="st1" d="M273.6,261.2v-23.9c-27.8,0-52.6,17.4-62.1,43.5v45.4c9.6,26.1,34.4,43.4,62.1,43.4v-23.8
			c-23.4,0-42.3-19-42.3-42.3C231.3,280.1,250.2,261.2,273.6,261.2z"/>
		<path class="st0" d="M165.2,345.8v23.8c36.5,0,66.1-29.6,66.1-66.1s-29.6-66.1-66.1-66.1l0,0v23.8c23.4,0,42.3,19,42.3,42.3
			C207.5,326.9,188.5,345.8,165.2,345.8z"/>
		<path class="st0" d="M36.1,412H23.5v-6.4h32.6v6.4H43.4v35.2h-7.3V412z"/>
		<path class="st0" d="M74.7,405.6h28.6v6.4H82.1v10.8h20.7v6.4H82.1v11.6h21.2v6.4H74.7V405.6z"/>
		<path class="st0" d="M121.4,426.5c-0.3-11.6,8.7-21.2,20.3-21.6c0.4,0,0.8,0,1.3,0c7-0.3,13.6,3.3,17.2,9.4l-6.2,3.2
			c-2.3-3.8-6.4-6-10.8-6c-8,0-14,6.3-14,15.1c0,8.8,6.1,15.1,14,15.1c4.4,0.1,8.5-2.2,10.8-6l6.2,3.1c-3.5,6-10.1,9.6-17.1,9.4
			c-11.6,0.4-21.2-8.6-21.6-20.2C121.4,427.4,121.4,426.9,121.4,426.5z"/>
		<path class="st0" d="M207.3,429.1h-21.7v18.2h-7.3v-41.6h7.3v17.1h21.7v-17.1h7.3v41.6h-7.3V429.1z"/>
		<path class="st0" d="M243.3,416.9v30.3h-7.3v-41.6h7.5l21.3,29.6v-29.6h7.3v41.6h-7.1L243.3,416.9z"/>
		<path class="st0" d="M312.9,404.9c12.5,0,21.3,9.1,21.3,21.6s-8.8,21.6-21.3,21.6c-12.5,0-21.3-9.1-21.3-21.6
			S300.4,404.9,312.9,404.9z M312.9,411.4c-8.4,0-13.8,6.4-13.8,15.1s5.4,15.1,13.8,15.1c8.4,0,13.8-6.5,13.8-15.1
			C326.8,417.9,321.3,411.4,312.9,411.4z"/>
		<path class="st0" d="M353.8,405.6h7.3v35.2h18.4v6.4h-25.7V405.6z"/>
		<path class="st0" d="M416.2,404.9c12.5,0,21.3,9.1,21.3,21.6s-8.8,21.6-21.3,21.6c-12.5,0-21.3-9.1-21.3-21.6
			S403.7,404.9,416.2,404.9z M416.2,411.4c-8.4,0-13.8,6.4-13.8,15.1s5.4,15.1,13.8,15.1c8.4,0,13.8-6.5,13.8-15.1
			C430,417.9,424.5,411.4,416.2,411.4z"/>
		<path class="st0" d="M477,404.9c6.7-0.2,13.1,3.1,16.8,8.7l-6,3.4c-2.5-3.5-6.5-5.6-10.8-5.6c-8.3,0-14.4,6.3-14.4,15.1
			c0,8.8,6.1,15.1,14.4,15.1c3.6,0,7.1-1.4,9.9-3.7v-6.5h-12.4v-6.4h19.8v15.6c-4.4,4.9-10.6,7.6-17.2,7.6c-12,0-21.9-8.6-21.9-21.6
			S464.9,404.9,477,404.9z"/>
		<path class="st0" d="M514.3,405.6h7.3v41.6h-7.3V405.6z"/>
		<path class="st0" d="M543,405.6h28.5v6.4h-21.3v10.8h20.8v6.4h-20.8v11.6h21.3v6.4H543V405.6z"/>
		<path class="st0" d="M592.9,435.8c3.4,3.7,8.2,5.7,13.2,5.7c6,0,8.4-2.9,8.4-5.7c0-3.8-4.4-4.9-9.5-6.2
			c-6.8-1.7-14.8-3.7-14.8-12.5c0-6.9,6-12.2,15.2-12.2c5.8-0.2,11.4,1.9,15.6,5.8l-4.2,5.4c-3.2-3.1-7.5-4.8-12-4.7
			c-4.3,0-7.1,2-7.1,5.2s4.3,4.3,9.2,5.6c6.9,1.8,15.1,3.9,15.1,12.9c0,6.9-4.9,12.9-16.1,12.9c-6.3,0.3-12.5-2.1-16.9-6.6
			L592.9,435.8z"/>
	</g>
</g>
</svg>
